Coordinates
version=1
nRows=14
nColumns=36
inDegrees=yes

Units are S.I. units (second, meters, Newtons, ...)
If the header above contains a line with 'inDegrees', this indicates whether rotational values are in degrees (yes) or radians (no).

endheader
time	pelvis_tilt	pelvis_list	pelvis_rotation	pelvis_tx	pelvis_ty	pelvis_tz	hip_flexion_r	hip_adduction_r	hip_rotation_r	knee_angle_r	knee_angle_r_beta	ankle_angle_r	subtalar_angle_r	mtp_angle_r	hip_flexion_l	hip_adduction_l	hip_rotation_l	knee_angle_l	knee_angle_l_beta	ankle_angle_l	subtalar_angle_l	mtp_angle_l	lumbar_extension	lumbar_bending	lumbar_rotation	arm_flex_r	arm_add_r	arm_rot_r	elbow_flex_r	pro_sup_r	arm_flex_l	arm_add_l	arm_rot_l	elbow_flex_l	pro_sup_l
      0.53333330	      1.19546132	      0.81944500	     10.23425559	     -0.05998847	      0.99854966	      0.27377679	     -0.87520906	     -3.63929999	     -8.47420959	      7.76876007	      0.13559044	      9.18851823	     -2.89478402	     -7.49610282	     -2.73589983	     -1.31642537	    -19.00590000	      5.00940008	      0.08743052	      9.02213265	      3.38475217	     -7.49610282	     -8.53795373	     -1.33073388	     -3.10278752	     23.61312889	    -41.86577190	     74.93760504	     74.09899386	     83.68611263	    -15.82416127	    -46.28181928	     39.08808658	     87.59435799	     78.40727532
      0.55000000	      1.18215464	      0.81066013	     10.29848804	     -0.06032454	      0.99840349	      0.27380557	     -0.84987806	     -3.59773271	     -8.39860911	      7.76101084	      0.13545519	      9.16716699	     -3.14818957	     -7.49660802	     -2.65178084	     -1.32424697	    -18.82380154	      5.01037382	      0.08744752	      8.84812685	      2.98402535	     -7.49660802	     -8.53071580	     -1.34454726	     -3.24604801	     23.51244293	    -41.78107442	     74.84158187	     73.85965255	     82.48495314	    -15.81491464	    -46.22099510	     39.08208848	     87.50363798	     77.52261419
      0.56666670	      1.19135731	      0.81343898	     10.40261996	     -0.05953409	      0.99897957	      0.27351685	     -0.87208208	     -3.57307717	     -8.39176516	      7.72488394	      0.13482466	      9.24939596	     -3.14898376	     -7.49760369	     -2.60913991	     -1.36279134	    -18.90323125	      5.05759778	      0.08827173	      8.84886209	      3.16897948	     -7.49760369	     -8.64964006	     -1.34357629	     -4.17967418	     24.63271253	    -41.32534663	     75.60964576	     73.53062644	     90.62518727	    -17.69464320	    -45.84387305	     36.41293803	     87.75411344	     84.64126941
      0.58333330	      1.18219809	      0.81236175	     10.40442376	     -0.05283744	      0.99937457	      0.27033715	     -0.87289932	     -3.57157504	     -8.38757662	      7.72840763	      0.13488616	      9.25084870	     -3.14936352	     -7.49760384	     -2.64814061	     -1.35805637	    -18.90503901	      5.06972296	      0.08848336	      8.84697939	      3.16843319	     -7.49760384	     -8.65339035	     -1.34895719	     -4.18424541	     24.63496073	    -41.32441898	     75.60855167	     73.52932909	     90.62526160	    -17.68948041	    -45.84459339	     36.41119428	     87.75381700	     84.64114750
      0.60000000	      1.22507670	      0.80623886	     10.52532480	     -0.05921544	      1.00225430	      0.27318801	     -1.01624342	     -3.52385593	     -8.31509500	      7.61907049	      0.13297787	      9.41081166	     -3.21738124	     -7.49761398	     -2.70035959	     -1.38591322	    -18.88675760	      5.00536160	      0.08736004	      8.74573503	      3.23309234	     -7.49761398	     -8.56497261	     -1.30770359	     -4.41407503	     24.51027948	    -41.33622748	     75.59964484	     73.42099500	     90.64532983	    -17.78102777	    -45.80573175	     36.49776459	     87.68935882	     84.65312714
      0.61666670	      1.21418774	      0.80297883	     10.52423757	     -0.05255154	      1.00562832	      0.27006924	     -1.02408827	     -3.52463779	     -8.31099663	      7.62531104	      0.13308678	      9.41142241	     -3.21862353	     -7.49761415	     -2.73027843	     -1.38483436	    -18.88722761	      5.01390883	      0.08750922	      8.74437018	      3.23321702	     -7.49761415	     -8.56534546	     -1.31317318	     -4.42028486	     24.51131363	    -41.33337363	     75.59789950	     73.41919943	     90.64561828	    -17.77741743	    -45.80476180	     36.49746055	     87.68835480	     84.65334868
      0.63333330	      1.31358593	      0.78933249	     10.62247497	     -0.05180441	      1.00588537	      0.26971015	     -1.32880987	     -3.44749943	     -8.22500050	      7.40075564	      0.12916755	      9.34237484	     -3.49041942	     -7.49805886	     -3.01212699	     -1.38594797	    -18.92793180	      4.75949055	      0.08306878	      8.65552732	      3.52483977	     -7.49805886	     -8.36177408	     -1.21314145	     -4.72909968	     24.22780532	    -40.99937090	     75.41866654	     72.71139144	     90.56879543	    -17.69257120	    -45.55597877	     37.07700026	     87.14030044	     84.52494515
      0.65000000	      1.30542431	      0.79806470	     10.66214378	     -0.05941476	      1.00201803	      0.27308742	     -1.28558090	     -3.45404467	     -8.21730301	      7.43207461	      0.12971417	      9.38323870	     -3.52290789	     -7.49806360	     -2.97402462	     -1.38359739	    -18.93677933	      4.82477108	      0.08420814	      8.68934693	      3.48013892	     -7.49806360	     -8.35149316	     -1.18822503	     -4.83782981	     24.15960991	    -41.02429788	     75.42739145	     72.70795405	     90.55816283	    -17.69704491	    -45.60583788	     37.06754601	     87.12921891	     84.51643358
      0.66666670	      1.31678617	      0.80586822	     10.65431364	     -0.05215045	      0.99977003	      0.26991863	     -1.29311511	     -3.45941415	     -8.21581382	      7.43895267	      0.12983422	      9.38318560	     -3.52495605	     -7.49806372	     -2.99979989	     -1.38444115	    -18.93452104	      4.83537287	      0.08439318	      8.68834552	      3.48047792	     -7.49806372	     -8.35707539	     -1.19120131	     -4.84342115	     24.15781503	    -41.02077573	     75.42627662	     72.70849579	     90.55865383	    -17.69640500	    -45.61017680	     37.06659205	     87.12674225	     84.51669308
      0.68333330	      1.30766939	      0.84171129	     10.80369498	     -0.05227385	      1.00308922	      0.26982692	     -1.36903345	     -3.48332984	     -8.19838718	      7.39948437	      0.12914537	      9.37140663	     -3.84561549	     -7.49854948	     -3.06328653	     -1.34720036	    -18.83412248	      4.78643544	      0.08353906	      8.73286812	      3.55562971	     -7.49854948	     -8.25417657	     -1.22895231	     -5.08641839	     23.27654820	    -41.06697739	     74.38014788	     72.89841699	     87.82607762	    -18.08491771	    -45.65714157	     37.15991901	     87.18028573	     82.09779587
      0.70000000	      1.32190100	      0.88111996	     10.80477288	     -0.05184354	      1.00332798	      0.26971901	     -1.40307342	     -3.51446755	     -8.06950863	      7.42175917	      0.12953413	      9.42369605	     -3.96908737	     -7.49865509	     -3.15368063	     -1.29334050	    -18.76194240	      4.74343356	      0.08278853	      8.65920374	      3.42238257	     -7.49865509	     -8.20489934	     -1.23106910	     -5.15235150	     22.94565054	    -40.96493923	     73.95319434	     72.66757214	     87.20486639	    -18.19176550	    -45.55016844	     37.15287119	     86.91839404	     81.53984139
      0.71666670	      1.32835501	      0.90908497	     10.83380330	     -0.05237330	      1.00328274	      0.26991480	     -1.46437670	     -3.51725242	     -8.01038586	      7.35238109	      0.12832326	      9.50461285	     -3.93906858	     -7.49905470	     -3.19277710	     -1.26800243	    -18.70305141	      4.74469237	      0.08281050	      8.71268683	      3.46357797	     -7.49905470	     -8.22850143	     -1.24679473	     -5.59965022	     23.24681281	    -40.72836367	     73.80004994	     72.46370442	     94.48007099	    -19.13960558	    -45.25148837	     35.74848548	     86.90720653	     86.80841371
      0.73333330	      1.32567099	      0.94579462	     10.77541957	     -0.05170426	      1.00349932	      0.26984701	     -1.51089425	     -3.54603873	     -7.94932225	      7.28837071	      0.12720607	      9.53724457	     -3.84656285	     -7.49912146	     -3.26374187	     -1.20728979	    -18.69269749	      4.66663263	      0.08144810	      8.68850678	      3.47946485	     -7.49912146	     -8.19604115	     -1.27061645	     -5.59197458	     22.97417156	    -40.71529996	     73.34877573	     72.44739342	     94.98114859	    -19.26266921	    -45.21603229	     35.69675356	     86.84670937	     86.71270604
      0.75000000	      1.35227685	      0.96819486	     10.75656669	     -0.05196091	      1.00326931	      0.27010140	     -1.57592084	     -3.54369070	     -7.88215741	      7.23574320	      0.12628754	      9.68334609	     -3.69296504	     -7.49942872	     -3.33693486	     -1.18963110	    -18.79288330	      4.65138934	      0.08118206	      8.76010572	      3.69608393	     -7.49942872	     -8.13246750	     -1.25529178	     -5.42973467	     22.72069606	    -40.85310188	     73.45308551	     72.60363554	     90.38723496	    -18.82118064	    -45.37680197	     36.59743864	     86.72616322	     83.09317160
